<?xml version="1.0" standalone="no"?>
<!DOCTYPE svg PUBLIC "-//W3C//DTD SVG 20010904//EN"
 "http://www.w3.org/TR/2001/REC-SVG-20010904/DTD/svg10.dtd">
<svg version="1.0" xmlns="http://www.w3.org/2000/svg"
 width="512.000000pt" height="512.000000pt" viewBox="0 0 512.000000 512.000000"
 preserveAspectRatio="xMidYMid meet">
<metadata>
Created by potrace 1.14, written by Peter Selinger 2001-2017
</metadata>
<g transform="translate(0.000000,512.000000) scale(0.100000,-0.100000)"
fill="#000000" stroke="none">
<path d="M0 2560 l0 -2560 1150 0 1150 0 0 476 0 476 33 -6 c57 -11 381 -18
422 -9 49 11 78 51 56 77 -12 14 -34 16 -175 10 -164 -6 -247 0 -399 33 l-78
16 88 37 c258 108 513 283 684 468 111 120 259 329 259 366 0 42 -72 62 -103
29 -8 -10 -38 -52 -65 -93 -300 -460 -777 -700 -1442 -726 -169 -7 -452 8
-589 32 -420 71 -582 263 -607 718 -12 211 26 427 102 584 96 198 273 321 499
350 l60 7 6 130 c13 265 73 459 194 630 52 73 177 194 248 239 259 166 597
247 1032 248 197 1 308 -13 460 -57 489 -141 883 -521 1039 -1003 74 -230 69
-122 73 -1655 l4 -1377 509 0 510 0 0 2560 0 2560 -2560 0 -2560 0 0 -2560z
m2693 2106 c53 -19 61 -28 214 -223 l135 -172 72 33 c39 18 136 64 216 101
135 63 149 67 201 63 60 -4 113 -35 145 -83 8 -13 41 -142 71 -287 31 -144 58
-265 59 -266 1 -2 101 -13 221 -24 247 -22 287 -34 330 -99 47 -71 44 -102
-38 -347 -40 -122 -71 -223 -69 -225 3 -2 92 -73 199 -157 206 -164 230 -192
231 -272 0 -84 -16 -102 -237 -280 -90 -71 -163 -134 -163 -138 0 -5 81 -73
180 -151 193 -152 220 -185 220 -265 -1 -84 -23 -109 -241 -281 l-204 -161 -6
707 c-5 680 -6 710 -27 804 -70 307 -206 566 -411 779 -252 263 -542 418 -906
484 -139 25 -463 26 -590 1 -147 -28 -147 -27 50 221 157 198 181 222 245 245
26 9 64 7 103 -7z"/>
<path d="M1472 3049 c-60 -30 -108 -77 -133 -133 -10 -22 -10 -29 3 -42 13
-14 22 -13 79 7 90 32 264 33 359 1 58 -19 67 -20 80 -6 13 13 12 20 -9 60
-70 131 -241 182 -379 113z"/>
<path d="M2490 2961 c-83 -26 -167 -94 -156 -128 6 -17 16 -19 104 -19 117 0
205 -24 304 -84 84 -50 108 -52 108 -7 0 87 -97 204 -193 232 -54 16 -126 18
-167 6z"/>
</g>
</svg>
