<svg width="200" height="200" viewBox="0 0 200 200" fill="none" xmlns="http://www.w3.org/2000/svg">
<path d="M190.909 100.001C190.909 150.207 150.207 190.91 99.9999 190.91C49.793 190.91 9.09076 150.207 9.09076 100.001C9.09076 49.7937 49.793 9.09147 99.9999 9.09147C150.207 9.09147 190.909 49.7937 190.909 100.001Z" fill="black"/>
<path d="M172.774 118.893L160.846 109.47L172.774 100.048C176.228 97.318 176.228 92.0771 172.774 89.3475L159.98 79.2407L164.712 65.0271C166.103 60.8498 163.228 56.468 158.842 56.0816L144.24 54.7953L140.565 37.3044C139.66 32.9953 134.969 30.6612 130.985 32.5384L117.185 39.0453L107.849 27.2271C105.119 23.7703 99.8782 23.7703 97.1486 27.2271L86.6736 40.4884C86.1418 41.1634 86.5464 42.0816 87.3259 42.2589C94.7645 40.8589 96.485 40.8203 102.271 40.9089C116.162 41.1248 128.901 45.9271 138.783 54.2384L139.835 55.1498C151.63 65.568 159.09 80.7884 159.09 97.7271V140.404L172.774 129.593C176.228 126.863 176.228 121.623 172.774 118.893Z" fill="#F2F2F2"/>
<path d="M73.8727 89.1409C71.6614 88.1227 68.9 87.5182 65.9068 87.5182C62.9114 87.5182 60.1523 88.1227 57.9409 89.1409C57.0295 89.5591 56.0546 88.6136 56.4296 87.6841C57.9114 84.0136 61.5773 81.4091 65.9068 81.4091C70.2341 81.4091 73.9023 84.0136 75.3818 87.6841C75.7568 88.6136 74.7841 89.5591 73.8727 89.1409ZM110.332 94.2568C110.448 95.2523 109.259 95.9091 108.491 95.2636C106.627 93.6977 104.125 92.3864 101.236 91.5955C98.3477 90.8046 95.525 90.6568 93.125 91.0545C92.1341 91.2182 91.4455 90.05 92.0523 89.2523C94.45 86.1023 98.675 84.5591 102.85 85.7023C107.025 86.8455 109.873 90.325 110.332 94.2568ZM154.545 172.67V100C154.545 69.875 130.125 45.4545 100 45.4545C73.3568 45.4545 45.0977 53.25 46.4182 89.8205C27.1818 91.0068 22.7273 106.97 22.7273 120.455C22.7273 147.195 36.7796 149.491 63.1682 149.934C87.5705 149.318 106.459 140.907 117.652 121.916C119.434 118.182 123.325 120.548 122.039 122.755C114.084 136.389 101.182 147.055 85.6659 152.6C86.9295 152.943 88.2114 153.239 89.5068 153.498C92.9068 154.161 96.4068 154.545 100 154.545C102.418 154.545 104.793 154.323 107.136 154.084C109.93 153.798 109.65 157.116 107.136 157.436C104.798 157.734 102.416 157.795 100 157.795C96.9045 157.795 93.8705 157.434 90.9091 156.957V190.457C44.9705 185.893 9.09091 147.139 9.09091 100C9.09091 49.7932 49.7909 9.09091 100 9.09091C150.207 9.09091 190.909 49.7932 190.909 100C190.909 129.727 176.609 156.084 154.545 172.67ZM100 1.90735e-06C44.8591 1.90735e-06 0 44.8614 0 100C0 155.141 44.8591 200 100 200C155.141 200 200 155.141 200 100C200 44.8614 155.141 1.90735e-06 100 1.90735e-06Z" fill="#F2F2F2"/>
</svg>
